# xmcd
#
# Track frame offsets:
# 150
# 15275
# 30757
# 48724
#
# Disc length: 909 seconds
#
#
# Revision: 0
# Processed by: cddbd v1.5.2PL0 Copyright (c) Steve Scherf et al.
# Submitted via: FreeRIP 2.95 
#
DISCID=1f038b04
DTITLE=Rebecca Linda Smith - Demo
DYEAR=1900
DGENRE=Country
TTITLE0=I Need Forgiveness
TTITLE1=Jesus' Grace
TTITLE2=Jesus, Lord Of My Life
TTITLE3=A Crown Of Thorns
EXTD=
EXTT0=
EXTT1=
EXTT2=
EXTT3=
PLAYORDER=
